<?xml version="1.0" standalone="no"?><!DOCTYPE svg PUBLIC "-//W3C//DTD SVG 1.1//EN" "http://www.w3.org/Graphics/SVG/1.1/DTD/svg11.dtd"><svg t="1779172521007" class="icon" viewBox="0 0 1024 1024" version="1.1" xmlns="http://www.w3.org/2000/svg" p-id="6203" xmlns:xlink="http://www.w3.org/1999/xlink" width="200" height="200"><path d="M141.728 423.136h139.024c69.496 0 126.24-56.064 128.328-125.76 0.032-0.664 0.104-1.312 0.104-1.984 0-0.328-0.024-0.656-0.024-0.992 0-0.336 0.024-0.664 0.024-1 0-0.672-0.072-1.328-0.104-1.992a129.736 129.736 0 0 0-56.352-103.16 121.784 121.784 0 0 0 18.96-65.496C371.688 55.072 316.616 0 248.936 0h-107.2a39.92 39.92 0 0 0-39.92 39.92v343.296a39.92 39.92 0 0 0 39.92 39.92z m39.92-343.304h67.28a42.96 42.96 0 0 1 40.392 57.504 43.04 43.04 0 0 1-40.384 28.328c-1.096 0-2.176 0.08-3.248 0.16h-64.04V79.84z m795.36 379.44c4.656 0.016 7.576 0.112 8.48 0.144a39.92 39.92 0 0 1 38.424 41.016l-0.024 0.704c0.544 28.8-0.272 224.264-117.424 341.416-24.056 24.048-49.488 42.264-75.6 54.12a39.92 39.92 0 0 1-33.016-72.688c17.36-7.88 34.904-20.632 52.16-37.888 70.96-70.944 88.528-185.52 92.76-245.648-60.12 4.24-174.624 21.824-245.552 92.76-32.528 32.52-48.232 64.384-48.024 97.4 0.064 9.008 1.36 17.6 3.36 25.664 37.48-35.72 82.144-74.912 135.128-116.696a39.92 39.92 0 1 1 49.44 62.68c-220.208 173.68-288.152 299.048-288.808 300.296a39.8 39.8 0 0 1-38.224 21.336 39.888 39.888 0 0 1-34.464-21.352c-0.616-1.144-24.736-45.424-89.808-117.256-46.28 26.944-107.328 28.576-113.688 28.664h-0.456l-0.08 0.008c-54.88 0-106.736-24.024-154.12-71.4C8.464 733.544 0.192 556.72 0 509.472l0.008-4.208c0.016-2.096 0.04-3.792 0.072-5.056a39.872 39.872 0 0 1 38.384-40.784c0.896-0.04 3.816-0.128 8.48-0.152h3c47.032 0.16 224.112 8.352 333.232 117.48 47.728 47.728 71.752 99.664 71.4 154.368-0.224 35.872-11.176 66.008-21.28 87.632 35.296 37.896 60.88 69.808 78.672 94.096 17.8-24.296 43.376-56.2 78.68-94.096-10.104-21.624-21.056-51.76-21.28-87.64-0.352-54.704 23.672-106.64 71.392-154.36 109.12-109.12 286.208-117.32 333.24-117.48zM81.16 540.448c4.232 60.096 21.8 174.688 92.76 245.648 32.312 32.312 64.256 48.016 97.664 48.016 13.04 0 36.056-3.224 55.384-9.664-37.76-36.752-84-77.896-140.16-122.192a39.92 39.92 0 0 1 49.44-62.68c52.992 41.792 97.656 80.976 135.136 116.696 2-8.064 3.296-16.656 3.36-25.664 0.2-33.024-15.504-64.88-48.024-97.408-70.912-70.912-185.408-88.504-245.56-92.752zM520.96 0a39.92 39.92 0 0 1 39.92 39.92v345.296a39.92 39.92 0 1 1-79.84 0V39.92A39.92 39.92 0 0 1 520.96 0z m263.464 0c79.24 0 143.704 64.464 143.704 143.704V279.44c0 79.24-64.464 143.704-143.704 143.704-79.24 0-143.704-64.464-143.704-143.704V143.704C640.712 64.464 705.176 0 784.416 0zM280.432 245.664c26.184 0 48.344 22.224 48.888 48.736-0.544 26.608-22.56 48.896-48.568 48.896H181.648V245.664h98.784zM784.416 79.84c-35.216 0-63.872 28.648-63.872 63.864V279.44c0 35.216 28.656 63.864 63.872 63.864s63.872-28.648 63.872-63.864V143.704c0-35.216-28.656-63.864-63.872-63.864z" fill="#3C9D17" p-id="6204"></path></svg>
