<?xml version="1.0" standalone="no"?><!DOCTYPE svg PUBLIC "-//W3C//DTD SVG 1.1//EN" "http://www.w3.org/Graphics/SVG/1.1/DTD/svg11.dtd"><svg t="1781225534832" class="icon" viewBox="0 0 1024 1024" version="1.1" xmlns="http://www.w3.org/2000/svg" p-id="13757" xmlns:xlink="http://www.w3.org/1999/xlink" width="200" height="200"><path d="M759.564207 85.073982a9.263345 9.263345 0 0 1-4.199703-1.019928c-5.423616-2.723807-11.675174-6.07157-18.622683-9.779308-35.145514-18.80267-88.265756-47.21666-140.522059-53.216236-56.647993-6.50354-110.956151 16.342844-131.858672 55.580068a9.359338 9.359338 0 0 1-16.522831-8.807377C472.640504 21.250497 533.06823-5.015645 598.355611 2.459826c55.808052 6.395548 110.82416 35.829465 147.217586 55.304088 6.803519 3.635743 12.911087 6.911511 18.214711 9.587321a9.359338 9.359338 0 0 1-4.223701 17.710748zM810.356614 982.778476a130.826745 130.826745 0 0 1-64.735421-21.106507 9.359338 9.359338 0 0 1 9.923298-15.874877c22.798387 14.254992 55.652063 24.634257 73.93877 13.679033 11.44719-6.839516 16.474835-21.958447 14.938943-44.900824a64.471439 64.471439 0 0 1 26.806103-61.135675 51.944325 51.944325 0 0 1 52.676274-2.41183 9.359338 9.359338 0 0 1-8.891371 16.474835 33.201651 33.201651 0 0 0-33.657619 1.679881 46.436715 46.436715 0 0 0-18.250709 44.132878c2.54382 38.037309-11.639177 54.836121-23.998302 62.227598a55.316087 55.316087 0 0 1-28.749966 7.235488zM146.323589 153.51714a59.023825 59.023825 0 0 1-16.198854-2.387831 47.996605 47.996605 0 0 1-33.093659-34.317573 51.836333 51.836333 0 0 1 12.743098-49.904469A9.359338 9.359338 0 0 1 123.26122 79.914347a33.273646 33.273646 0 0 0-8.147423 32.037733 29.457916 29.457916 0 0 0 20.158574 21.178502c19.150645 5.483612 43.580917 0.875938 80.058336-74.094758 22.438413-46.412717 61.363659-55.880047 88.037772-44.996817 27.406061 11.159211 47.49264 45.056813 30.549839 95.573239a9.359338 9.359338 0 1 1-17.758744-5.951579c13.091074-39.02124-0.539962-64.435442-19.858595-72.294886-18.838667-7.679457-46.916681 0.263981-64.135463 35.841465-28.857959 59.323803-55.304088 86.309894-85.829928 86.309894zM263.759281 942.845301c-31.80975 0-73.254818-15.11893-90.053629-87.149835-13.235064-56.635993-7.523468-135.806393-0.191987-205.773443l18.598685 1.943863c-7.163493 68.41916-12.779096 145.633698-0.191987 199.569882 11.267203 48.236588 35.433493 72.690858 71.838918 72.690857a57.271948 57.271948 0 0 0 42.69298-15.838879 84.11405 84.11405 0 0 0 18.94666-58.315875 212.768948 212.768948 0 0 0-8.171422-61.075679l-2.471826-10.04329 18.190714-4.403688 2.447826 9.959295a230.011728 230.011728 0 0 1 8.723383 65.155391 99.532959 99.532959 0 0 1-24.286282 71.81492 75.234678 75.234678 0 0 1-56.072033 21.47848z" fill="#6C8CC0" p-id="13758"></path><path d="M331.470491 810.794643a1.199915 1.199915 0 0 1-0.899936-0.407972l-98.453036-112.264058a1.199915 1.199915 0 0 1 0.671953-1.967861l40.113162-7.979435c-4.559677-41.349075-7.607462-83.97006-9.311341-130.310782a2252.348664 2252.348664 0 0 1-0.011999-151.2493c3.035785-103.876652 11.915157-206.24141 21.070509-301.382679 0.695951-4.199703 6.755522-6.287555 18.034724-6.287556 20.002585 0 50.132454 6.707525 56.767985 14.542972a5.255628 5.255628 0 0 1 1.439898 4.295696 1342.585023 1342.585023 0 0 0-25.87017 144.445781c-5.903582 46.07674-9.791307 95.297258-11.59118 146.281652a1394.853325 1394.853325 0 0 0 15.358913 266.561143s40.605128-8.075429 40.689122-8.075429a1.199915 1.199915 0 0 1 1.139919 1.583888l-48.008604 141.397997a1.199915 1.199915 0 0 1-0.899936 0.791944z" fill="#94B2D8" p-id="13759"></path><path d="M302.672528 100.144916c22.270425 0 58.495862 8.675386 57.043965 17.446765a1336.801432 1336.801432 0 0 0-25.894168 144.493779c-6.21556 48.584563-9.863302 97.481104-11.579181 146.389644a1407.332442 1407.332442 0 0 0 15.5509 268.01304l41.685051-8.279415-47.996605 141.385998-98.465034-112.264058 41.205085-8.19542a1773.042571 1773.042571 0 0 1-9.431333-131.306711 2242.701346 2242.701346 0 0 1-0.023998-151.165306c2.951791-100.624882 11.399194-200.673804 21.082508-301.298686 0.599958-3.695739 7.48747-5.219631 16.82281-5.21963m0-2.399831c-12.107144 0-18.3827 2.363833-19.198642 7.21149-9.167351 95.285259-18.058722 197.638019-21.106506 301.634662-1.679881 48.596562-1.679881 99.508961 0.023998 151.309296 1.679881 45.908752 4.691668 88.229758 9.203349 129.314852l-39.045238 7.763451a2.39983 2.39983 0 0 0-1.343905 3.935721l98.465034 112.264058a2.39983 2.39983 0 0 0 4.079712-0.815942l47.996604-141.385998a2.39983 2.39983 0 0 0-2.735806-3.119779l-39.237224 7.799448a1395.825256 1395.825256 0 0 1-15.13093-265.121245c1.775874-50.924397 5.675598-100.108918 11.567182-146.149661a1339.057272 1339.057272 0 0 1 25.846171-144.229797 6.407547 6.407547 0 0 0-1.679881-5.447614c-7.35548-8.675386-39.573201-14.962941-57.703918-14.962942z" fill="#285192" p-id="13760"></path><path d="M877.40787 524.15892a1.199915 1.199915 0 0 1-1.199915-1.199915c-0.155989-18.982657-71.514941-54.596138-134.486486-86.009916-63.955476-31.905743-119.151571-59.455794-119.151571-75.354669v-139.670119a1.199915 1.199915 0 0 1 1.187916-1.187916 1.199915 1.199915 0 0 1 1.199915 1.199915v0.155989c0.155989 23.758319 74.658718 59.335802 140.390069 90.737581 60.763701 29.037946 113.247989 54.116172 113.247988 70.483014v139.646121a1.199915 1.199915 0 0 1-1.199915 1.199915z" fill="#94B2D8" p-id="13761"></path><path d="M623.745815 222.104288c0.299979 45.596774 253.662055 127.466983 253.662055 161.208596v139.646121c-0.311978-37.809325-253.662055-129.686826-253.662055-161.376584V222.104288m0-2.483824a2.327835 2.327835 0 0 0-2.39983 2.303837v139.670119c0 15.514902 45.284796 39.237224 119.847521 76.434593 62.647568 31.257789 133.670544 66.691282 133.802535 84.95399a2.39983 2.39983 0 0 0 2.39983 2.375832 2.39983 2.39983 0 0 0 2.39983-2.39983V383.312884c0-15.97087-43.052954-37.689334-113.955938-71.562938-65.395374-31.24579-139.550128-66.667284-139.694118-89.657657v-0.155989a2.471825 2.471825 0 0 0-2.387831-2.315836z" fill="#285192" p-id="13762"></path><path d="M877.40787 814.922351a1.199915 1.199915 0 0 1-1.199915-1.199916c-0.155989-18.982657-71.514941-54.596138-134.474487-86.009915-63.955476-31.905743-119.175569-59.467793-119.175569-75.366668V512.69973a1.199915 1.199915 0 0 1 1.199915-1.199915 1.199915 1.199915 0 0 1 1.199915 1.199915v0.155989c0.155989 23.74632 74.63472 59.335802 140.354071 90.725582 60.799699 29.037946 113.271987 54.116172 113.271987 70.483014v139.65812a1.199915 1.199915 0 0 1-1.187916 1.199916z" fill="#94B2D8" p-id="13763"></path><path d="M623.745815 512.867719c0.299979 45.596774 253.662055 127.466983 253.662055 161.208595v139.646121c-0.311978-37.821324-253.662055-129.686826-253.662055-161.376583V512.867719m0-2.483825a2.327835 2.327835 0 0 0-2.39983 2.303837v139.67012c0 15.514902 45.284796 39.225225 119.847521 76.434593 62.647568 31.257789 133.670544 66.691282 133.802535 84.95399a2.39983 2.39983 0 0 0 2.39983 2.375832 2.39983 2.39983 0 0 0 2.39983-2.399831V674.064315c0-15.958871-43.052954-37.677335-113.955938-71.562937-65.395374-31.24579-139.550128-66.655285-139.694118-89.657658v-0.14399a2.471825 2.471825 0 0 0-2.387831-2.315836z" fill="#285192" p-id="13764"></path><path d="M750.528846 1022.807644a1.175917 1.175917 0 0 1-0.539962-0.13199l-8.61539-4.319695c-63.775488-31.833748-118.851592-59.347802-118.851593-75.282674v-139.550128a1.199915 1.199915 0 1 1 2.399831 0c0 23.806316 74.850705 59.51579 140.870034 91.025561 12.359126 5.879584 24.514266 11.687173 35.997454 17.314775a1.211914 1.211914 0 0 1 0.551961 1.583888l-50.720412 108.664313a1.199915 1.199915 0 0 1-0.695951 0.623955 1.199915 1.199915 0 0 1-0.395972 0.071995z" fill="#94B2D8" p-id="13765"></path><path d="M623.709817 803.535156c0 29.013947 102.856724 72.810849 177.55144 109.40826l-50.732411 108.652314c-63.451511-31.725756-126.819029-62.611571-126.819029-78.522445v-139.550128m0-2.39983a2.39983 2.39983 0 0 0-2.39983 2.39983v139.550128c0 15.5509 45.140807 39.213226 119.475548 76.3386l8.675386 4.331693a2.39983 2.39983 0 0 0 3.239771-1.12792l50.732411-108.664313a2.39983 2.39983 0 0 0-1.115921-3.167776c-11.507186-5.639601-23.674325-11.435191-36.021451-17.338773-65.707352-31.341783-140.186083-66.883269-140.186083-89.90964a2.39983 2.39983 0 0 0-2.399831-2.39983z" fill="#285192" p-id="13766"></path><path d="M877.287879 231.031656a1.199915 1.199915 0 0 1-1.199915-1.199915c0-23.794317-74.838706-59.503791-140.870035-91.001562-12.347127-5.903582-24.502267-11.699172-35.997453-17.326774a1.199915 1.199915 0 0 1-0.56396-1.595888L749.376927 11.255204a1.199915 1.199915 0 0 1 0.695951-0.623956 1.175917 1.175917 0 0 1 0.935934 0.059996l8.675386 4.331693c63.739491 31.833748 118.791596 59.335802 118.791597 75.258676v139.550128a1.199915 1.199915 0 0 1-1.199915 1.199915z" fill="#94B2D8" p-id="13767"></path><path d="M750.46885 11.759168C813.932361 43.484924 877.287879 74.370739 877.287879 90.281613v139.550128c0-29.013947-102.856724-72.810849-177.539441-109.40826L750.456851 11.759168m0-2.39983a2.39983 2.39983 0 0 0-2.171846 1.379902l-50.732411 108.664313a2.39983 2.39983 0 0 0 1.12792 3.167776c11.495187 5.639601 23.662326 11.44719 36.021452 17.338773 65.695353 31.353782 140.174084 66.883269 140.174083 89.921639a2.39983 2.39983 0 0 0 4.799661 0V90.281613c0-15.538901-45.140807-39.213226-119.475548-76.338599L751.536775 9.623319a2.39983 2.39983 0 0 0-1.067925-0.263981z" fill="#285192" p-id="13768"></path><path d="M623.865806 361.258444a1.12792 1.12792 0 0 1-1.199915-1.115921V218.456546c0-16.222852 55.232093-36.417424 119.187569-59.827768 62.851554-22.990374 134.078515-49.040531 134.234504-68.203175a1.199915 1.199915 0 0 1 1.199915-1.187916 1.199915 1.199915 0 0 1 1.199915 1.199915v141.685977c0 16.690819-52.508285 34.761541-113.295985 55.70006C699.58045 310.406041 625.209711 336.000231 625.053722 359.974535v0.071995a1.259911 1.259911 0 0 1-1.199915 1.199915z" fill="#BAD4EA" p-id="13769"></path><path d="M877.287879 90.437602v141.685977c0 34.221579-253.134093 81.630225-253.422073 127.850956V218.456546c0-32.157725 253.122094-89.693655 253.422073-128.018944M623.865806 359.974535v0M877.287879 88.037772a2.39983 2.39983 0 0 0-2.39983 2.387831c-0.14399 18.322704-70.96298 44.228871-133.44256 67.075255-74.658718 27.322067-119.991512 45.044813-119.991512 60.955688v141.697976a2.39983 2.39983 0 0 0 2.39983 2.387831h0.011999a2.39983 2.39983 0 0 0 2.399831-2.39983V359.974535c0.14399-23.122364 74.082759-48.584563 139.310144-71.034975 70.746995-24.358277 114.111927-40.125161 114.111928-56.82798V90.437602a2.39983 2.39983 0 0 0-2.39983-2.39983z" fill="#285192" p-id="13770"></path><path d="M623.865806 652.021875a1.12792 1.12792 0 0 1-1.199915-1.115922V509.219977c0-16.222852 55.220094-36.429423 119.17557-59.827768 62.863553-22.990374 134.090514-49.040531 134.246503-68.203175a1.199915 1.199915 0 0 1 1.199915-1.199915 1.199915 1.199915 0 0 1 1.199915 1.199915v141.685977c0 16.702818-52.508285 34.77354-113.307984 55.712058-65.611359 22.582402-139.970098 48.176592-140.126088 72.162896v0.071994a1.259911 1.259911 0 0 1-1.199915 1.199916z" fill="#BAD4EA" p-id="13771"></path><path d="M877.287879 381.213032v141.673978c0 34.221579-253.134093 81.618226-253.422073 127.850955V509.219977c0-32.157725 253.122094-89.693655 253.422073-128.018944M623.865806 650.737965v0m253.422073-271.936762a2.39983 2.39983 0 0 0-2.39983 2.375832c-0.14399 18.334703-70.96298 44.24087-133.44256 67.087254-74.658718 27.310068-119.991512 45.044813-119.991512 60.955688v141.697976a2.39983 2.39983 0 0 0 2.39983 2.375832h0.011999a2.39983 2.39983 0 0 0 2.399831-2.399831v-0.143989c0.14399-23.134363 74.082759-48.584563 139.310144-71.034975 70.746995-24.358277 114.111927-40.125161 114.111928-56.82798V381.201033a2.39983 2.39983 0 0 0-2.39983-2.39983z" fill="#285192" p-id="13772"></path><path d="M623.865806 942.773306a1.12792 1.12792 0 0 1-1.199915-1.103922V799.983407c0-16.222852 55.220094-36.429423 119.17557-59.827767C804.705013 717.165266 875.931975 691.10311 876.087964 671.952465a1.199915 1.199915 0 0 1 1.199915-1.199916 1.199915 1.199915 0 0 1 1.199915 1.199916v141.685976c0 16.690819-52.508285 34.77354-113.295985 55.70006-65.611359 22.582402-139.982097 48.188591-140.138087 72.174894v0.059996a1.259911 1.259911 0 0 1-1.199915 1.199915z" fill="#BAD4EA" p-id="13773"></path><path d="M877.287879 671.952465v141.685976c0 34.233578-253.134093 81.630225-253.422073 127.862955V799.983407c0-32.157725 253.122094-89.693655 253.422073-128.030942M623.865806 941.513395v0M877.287879 669.552634a2.39983 2.39983 0 0 0-2.39983 2.375832c-0.14399 18.322704-70.96298 44.228871-133.44256 67.087254-74.658718 27.310068-119.991512 45.044813-119.991512 60.955688v141.685977a2.39983 2.39983 0 0 0 2.39983 2.39983h0.011999a2.39983 2.39983 0 0 0 2.399831-2.39983V941.501396c0.14399-23.134363 74.082759-48.596562 139.310144-71.034975 70.746995-24.358277 114.111927-40.137161 114.111928-56.839979V671.964464a2.39983 2.39983 0 0 0-2.39983-2.39983z" fill="#285192" p-id="13774"></path><path d="M182.273046 668.940678c-17.830739 0-38.637267-2.855798-38.637267-10.88323a523.978933 523.978933 0 0 1 34.413565-153.109169c0.815942-2.063854 1.595887-4.139707 2.363833-6.239559 1.475896-3.995717 2.951791-7.991435 4.751664-11.831163l8.19542-17.398769c1.259911-2.579817 2.447827-5.159635 3.623744-7.763451 1.487895-3.239771 2.975789-6.479542 4.559677-9.647317l18.310705-33.50163 10.019291-16.11486 9.827305-16.126859 10.475259-15.598897a672.492426 672.492426 0 0 1 21.406486-30.645832 1050.813663 1050.813663 0 0 1 21.802457-29.949881l43.96489-58.291877a880.041744 880.041744 0 0 0 61.687636-91.229546l-38.517275-11.699172a1.199915 1.199915 0 0 1-0.467967-2.027857l109.000289-102.040781a1.187916 1.187916 0 0 1 0.815942-0.323977 1.199915 1.199915 0 0 1 1.175917 0.923934l33.885603 145.429712a1.199915 1.199915 0 0 1-0.347975 1.151919 1.187916 1.187916 0 0 1-0.815943 0.323977 1.211914 1.211914 0 0 1-0.359974-0.059996l-40.689122-12.359125A1050.189707 1050.189707 0 0 1 387.962495 283.41995l-9.947297 12.599109c-28.593977 36.117445-55.604066 70.25503-79.410382 106.86444a501.924493 501.924493 0 0 0-61.171673 123.315277 345.89953 345.89953 0 0 0-16.546829 131.774678c0 8.123425-20.806528 10.979223-38.637267 10.979223z" fill="#BAD4EA" p-id="13775"></path><path d="M469.8807 45.716766l33.885602 145.429712-41.589057-12.635106a1089.078956 1089.078956 0 0 1-78.762429 108.760306c-30.237861 38.229296-60.175743 75.534657-85.80593 114.951868a508.080057 508.080057 0 0 0-61.291664 123.591257 348.371355 348.371355 0 0 0-16.606825 132.230645c0 6.467542-18.718676 9.695314-37.437351 9.695315s-37.437352-3.239771-37.437352-9.683315a524.482897 524.482897 0 0 1 34.329571-152.665201c2.387831-5.999576 4.367691-12.179138 7.0795-17.998726l8.207419-17.410769c2.795802-5.759593 5.315624-11.675174 8.171422-17.38677l9.119355-16.738815 9.155352-16.714818 9.983294-16.054864 9.839304-16.138859 10.451261-15.562899a673.99232 673.99232 0 0 1 21.370488-30.597835 1055.613324 1055.613324 0 0 1 21.790458-29.925883l43.976889-58.315875a860.759108 860.759108 0 0 0 62.515578-92.657445l-39.957174-12.119143 109.012289-102.05278m0-2.39983a2.39983 2.39983 0 0 0-1.643884 0.647954l-109.012288 102.040781a2.39983 2.39983 0 0 0 0.947933 4.043714l37.089376 11.267203a889.689061 889.689061 0 0 1-60.871694 89.801647l-43.976889 58.291877a1065.884597 1065.884597 0 0 0-21.826456 29.997878 675.072244 675.072244 0 0 0-21.418485 30.657831l-10.439261 15.5509-9.887301 16.222852-9.983294 16.030866-9.215348 16.82281-9.119354 16.762814c-1.631885 3.239771-3.119779 6.479542-4.607675 9.719312-1.187916 2.591817-2.375832 5.183633-3.623743 7.751452l-8.20742 17.446766c-1.823871 3.887725-3.323765 7.943438-4.775662 11.87916-0.779945 2.087852-1.55989 4.187704-2.375832 6.251557a525.202846 525.202846 0 0 0-34.497559 153.37315c0 11.675174 33.177653 12.263132 39.837182 12.263133s39.837182-0.587958 39.837181-12.083145a344.735613 344.735613 0 0 1 16.486834-131.510697 500.436598 500.436598 0 0 1 61.015684-123.003299c23.758319-36.549414 50.720412-70.603005 79.266392-106.672453l6.419546-8.111426 3.563748-4.53568a1058.949088 1058.949088 0 0 0 74.394737-102.868722l39.813184 12.083145a2.39983 2.39983 0 0 0 3.035785-2.843799l-33.885603-145.429712a2.39983 2.39983 0 0 0-2.339834-1.847869z" fill="#285192" p-id="13776"></path><path d="M498.558671 731.288267a47.21666 47.21666 0 1 1 47.228659-47.21666 47.276656 47.276656 0 0 1-47.228659 47.21666z" fill="#82CEF3" p-id="13777"></path><path d="M498.558671 638.042863a46.016745 46.016745 0 1 1-46.016745 46.028744 46.016745 46.016745 0 0 1 46.016745-46.028744m0-2.39983a48.416575 48.416575 0 1 0 48.428574 48.428574 48.476571 48.476571 0 0 0-48.428574-48.428574z" fill="#285192" p-id="13778"></path><path d="M544.623412 684.03561a46.040743 46.040743 0 0 1-83.286108 27.046087 46.028744 46.028744 0 0 0 73.08683-37.245366 44.792831 44.792831 0 0 0-8.987365-27.14208 45.824758 45.824758 0 0 1 19.198642 37.341359z" fill="#51AFDE" p-id="13779"></path><path d="M474.545226 656.224721a2.003858 3.143778 45 1 0 4.445973-4.445973 2.003858 3.143778 45 1 0-4.445973 4.445973Z" fill="#FFFFFF" opacity=".75" p-id="13780"></path><path d="M646.628196 520.259196l-53.840191-12.791095a14.962941 14.962941 0 0 0-15.106931 5.159635l-23.302352 28.845959a8.963366 8.963366 0 0 1-6.047572 3.287767l-33.717615 3.53975a14.962941 14.962941 0 0 0-13.055076 11.759168l-6.995505 32.853676a14.974941 14.974941 0 0 0 7.163493 16.078863l34.725543 20.050581a5.999576 5.999576 0 0 0 7.019504-0.731948l29.805891-26.830102a14.962941 14.962941 0 0 0 3.659741-17.218782l-12.599109-28.27a8.963366 8.963366 0 0 1 1.223914-9.275344l19.07865-23.626329a8.963366 8.963366 0 0 1 9.04736-3.083781l50.18045 11.927156a5.999576 5.999576 0 1 0 2.759805-11.675174z m-113.583965 92.957424l-21.550475-12.431121a8.963366 8.963366 0 0 1-4.283697-9.635318l5.171634-24.32228a8.963366 8.963366 0 0 1 7.835446-7.043501l24.73025-2.603816a8.963366 8.963366 0 0 1 9.131354 5.279626l10.115285 22.702394a8.963366 8.963366 0 0 1-2.195845 10.31927l-18.478693 16.630824a8.963366 8.963366 0 0 1-10.475259 1.103922zM651.079881 836.820801a5.987576 5.987576 0 0 0-7.21149-4.439685l-50.18045 11.915157a8.963366 8.963366 0 0 1-9.04736-3.083782l-19.07865-23.61433a8.963366 8.963366 0 0 1-1.223914-9.287343l12.599109-28.27a14.962941 14.962941 0 0 0-3.659741-17.206783l-24.958234-22.47441a14.974941 14.974941 0 0 0-17.506762-1.847869l-29.085942 16.798812a14.962941 14.962941 0 0 0-7.163493 16.078862l6.995505 32.853676a14.962941 14.962941 0 0 0 13.079074 11.759168l33.705616 3.551749a8.963366 8.963366 0 0 1 6.035573 3.287767l26.8541 33.237649a5.975577 5.975577 0 0 0 4.66767 2.231842 5.879584 5.879584 0 0 0 1.379903-0.155989l59.347801-14.111002a5.999576 5.999576 0 0 0 4.451685-7.223489z m-139.586125-73.302814l21.550475-12.431121a8.963366 8.963366 0 0 1 10.475259 1.103922l18.478693 16.642823a8.963366 8.963366 0 0 1 2.195845 10.307271l-10.115285 22.726392a8.963366 8.963366 0 0 1-9.119355 5.267628l-24.742249-2.603816a8.963366 8.963366 0 0 1-7.835446-7.055501l-5.171634-24.32228a8.963366 8.963366 0 0 1 4.283697-9.635318zM445.486425 619.792155a5.999576 5.999576 0 0 1-4.907653-2.55582l-53.43222-76.098616a9.659317 9.659317 0 0 0-7.90744-4.10371h-85.313965a5.999576 5.999576 0 0 1 0-11.999151h88.433744a15.658892 15.658892 0 0 1 12.815094 6.659529l55.232092 78.654436a5.999576 5.999576 0 0 1-4.919652 9.443332zM391.718229 838.128709H336.366145a5.999576 5.999576 0 0 1 0-11.999151h52.220306a9.659317 9.659317 0 0 0 7.90744-4.115709l53.444219-76.098617a5.999576 5.999576 0 0 1 9.815306 6.887513l-55.244092 78.666435a15.658892 15.658892 0 0 1-12.803094 6.659529z" fill="#285192" p-id="13781"></path></svg>